<svg xmlns="http://www.w3.org/2000/svg" width="50" height="49" viewBox="0 0 50 49">
  <g id="swap" transform="translate(-1556 -42)">
    <rect id="bg" width="50" height="49" transform="translate(1556 42)" fill="#279f9d"/>
    <path id="swap-2" data-name="swap" d="M15.6,22.743a1.122,1.122,0,0,1-.227,1.175L11.1,28.189a1.095,1.095,0,0,1-1.522,0L5.307,23.917a1.121,1.121,0,0,1-.227-1.175,1.068,1.068,0,0,1,.988-.654h3.2V6.068a1.068,1.068,0,0,1,2.136,0v16.02h3.2a1.068,1.068,0,0,1,.988.654ZM28.189,9.579,23.917,5.307a1.081,1.081,0,0,0-1.522,0L18.123,9.579a1.121,1.121,0,0,0-.227,1.175,1.068,1.068,0,0,0,.988.654h3.2v16.02a1.068,1.068,0,0,0,2.136,0V11.408h3.2a1.068,1.068,0,0,0,.988-.654,1.121,1.121,0,0,0-.227-1.175Z" transform="translate(1564.254 83.248) rotate(-90)" fill="#fff"/>
  </g>
</svg>
